# Blender v2.93.4 OBJ File: ''
# www.blender.org
mtllib Circle.mtl
o Circle_Circle.006
v 0.000000 2.228821 -0.044323
v -0.195090 2.209625 -0.043472
v -0.382683 2.152775 -0.040949
v -0.555570 2.060456 -0.036853
v -0.707107 1.936215 -0.031341
v -0.831470 1.784828 -0.024625
v -0.923880 1.612111 -0.016962
v -0.980785 1.424702 -0.008647
v -1.000000 1.229803 0.000000
v -0.980785 1.034905 0.008647
v -0.923880 0.847496 0.016962
v -0.831470 0.674779 0.024625
v -0.707107 0.523392 0.031341
v -0.555570 0.399151 0.036853
v -0.382683 0.306832 0.040949
v -0.195090 0.249982 0.043472
v 0.000000 0.230786 0.044323
v 0.195090 0.249982 0.043472
v 0.382683 0.306832 0.040949
v 0.555570 0.399151 0.036853
v 0.707107 0.523392 0.031341
v 0.831469 0.674779 0.024625
v 0.923880 0.847496 0.016962
v 0.980785 1.034905 0.008647
v 1.000000 1.229803 -0.000000
v 0.980785 1.424702 -0.008647
v 0.923879 1.612111 -0.016962
v 0.831470 1.784827 -0.024625
v 0.707107 1.936215 -0.031341
v 0.555570 2.060456 -0.036853
v 0.382683 2.152775 -0.040949
v 0.195090 2.209625 -0.043472
v -0.195090 2.196208 -0.345866
v 0.000000 2.215404 -0.346718
v -0.382683 2.139359 -0.343344
v -0.555570 2.047040 -0.339248
v -0.707107 1.922799 -0.333736
v -0.831470 1.771411 -0.327020
v -0.923880 1.598694 -0.319357
v -0.980785 1.411286 -0.311042
v -1.000000 1.216387 -0.302395
v -0.980785 1.021489 -0.293748
v -0.923880 0.834080 -0.285433
v -0.831470 0.661363 -0.277770
v -0.707107 0.509975 -0.271054
v -0.555570 0.385735 -0.265541
v -0.382683 0.293416 -0.261445
v -0.195090 0.236566 -0.258923
v 0.000000 0.217370 -0.258072
v 0.195090 0.236566 -0.258923
v 0.382683 0.293416 -0.261445
v 0.555570 0.385735 -0.265541
v 0.707107 0.509975 -0.271054
v 0.831469 0.661363 -0.277770
v 0.923880 0.834080 -0.285433
v 0.980785 1.021488 -0.293748
v 1.000000 1.216387 -0.302395
v 0.980785 1.411286 -0.311042
v 0.923879 1.598695 -0.319357
v 0.831470 1.771411 -0.327020
v 0.707107 1.922799 -0.333736
v 0.555570 2.047040 -0.339248
v 0.382683 2.139359 -0.343344
v 0.195090 2.196208 -0.345866
vt 0.452247 0.009183
vt 0.549473 0.009183
vt 0.644831 0.027852
vt 0.734655 0.064474
vt 0.815495 0.117641
vt 0.884244 0.185310
vt 0.938259 0.264879
vt 0.975466 0.353293
vt 0.994434 0.447152
vt 0.994434 0.542850
vt 0.975466 0.636708
vt 0.938259 0.725122
vt 0.884244 0.804692
vt 0.815495 0.872361
vt 0.734656 0.925527
vt 0.644830 0.962150
vt 0.549473 0.980819
vt 0.452247 0.980819
vt 0.356890 0.962150
vt 0.267066 0.925528
vt 0.186226 0.872361
vt 0.117477 0.804692
vt 0.063461 0.725122
vt 0.026255 0.636709
vt 0.007287 0.542850
vt 0.007287 0.447152
vt 0.026255 0.353294
vt 0.063461 0.264880
vt 0.117477 0.185309
vt 0.186226 0.117641
vt 0.267065 0.064475
vt 0.356890 0.027852
vt 0.500860 0.980916
vt 0.404550 0.971580
vt 0.311940 0.943928
vt 0.226591 0.899025
vt 0.151782 0.838595
vt 0.090387 0.764961
vt 0.044767 0.680953
vt 0.016674 0.589798
vt 0.007188 0.495001
vt 0.016674 0.400204
vt 0.044767 0.309049
vt 0.090387 0.225041
vt 0.151782 0.151407
vt 0.226591 0.090977
vt 0.311940 0.046074
vt 0.404550 0.018422
vt 0.500860 0.009085
vt 0.597171 0.018422
vt 0.689780 0.046074
vt 0.775130 0.090977
vt 0.849939 0.151407
vt 0.911333 0.225041
vt 0.956954 0.309049
vt 0.985047 0.400203
vt 0.994532 0.495001
vt 0.985047 0.589798
vt 0.956954 0.680953
vt 0.911334 0.764961
vt 0.849939 0.838595
vt 0.775130 0.899025
vt 0.689780 0.943928
vt 0.597171 0.971580
vt 0.226591 0.899025
vt 0.151782 0.838595
vt 0.689780 0.943928
vt 0.597171 0.971580
vt 0.597171 0.018422
vt 0.689780 0.046074
vt 0.090387 0.764961
vt 0.500860 0.980916
vt 0.775130 0.090977
vt 0.044767 0.680953
vt 0.849939 0.151407
vt 0.016674 0.589798
vt 0.911333 0.225041
vt 0.007188 0.495001
vt 0.956954 0.309049
vt 0.016674 0.400204
vt 0.985047 0.400203
vt 0.044767 0.309049
vt 0.994532 0.495001
vt 0.090387 0.225041
vt 0.985047 0.589798
vt 0.151782 0.151407
vt 0.956954 0.680953
vt 0.226591 0.090977
vt 0.911334 0.764961
vt 0.311940 0.046074
vt 0.404550 0.971580
vt 0.849939 0.838595
vt 0.404550 0.018422
vt 0.311940 0.943928
vt 0.775130 0.899025
vt 0.500860 0.009085
vn -0.0000 -0.0443 -0.9990
vn 0.0000 0.0443 0.9990
vn 0.6344 -0.7723 0.0343
vn -0.2903 -0.9560 0.0424
vn -0.2903 0.9560 -0.0424
vn 0.7730 -0.6338 0.0281
vn -0.0980 -0.9942 0.0441
vn -0.4714 0.8811 -0.0391
vn 0.8819 -0.4709 0.0209
vn -0.6344 0.7723 -0.0343
vn 0.9569 -0.2900 0.0129
vn -0.7730 0.6338 -0.0281
vn 0.9952 -0.0979 0.0043
vn -0.8819 0.4709 -0.0209
vn 0.9952 0.0979 -0.0043
vn -0.9569 0.2900 -0.0129
vn 0.9569 0.2900 -0.0129
vn -0.9952 0.0979 -0.0043
vn 0.8819 0.4709 -0.0209
vn -0.9952 -0.0979 0.0043
vn 0.7730 0.6338 -0.0281
vn -0.9569 -0.2900 0.0129
vn 0.6344 0.7723 -0.0343
vn -0.8819 -0.4709 0.0209
vn 0.4714 0.8811 -0.0391
vn 0.0980 -0.9942 0.0441
vn -0.7730 -0.6338 0.0281
vn 0.2903 0.9560 -0.0424
vn 0.2903 -0.9560 0.0424
vn -0.6344 -0.7723 0.0343
vn 0.0980 0.9942 -0.0441
vn 0.4714 -0.8811 0.0391
vn -0.4714 -0.8811 0.0391
vn -0.0980 0.9942 -0.0441
usemtl Material.001
s off
f 1/1/1 32/2/1 31/3/1 30/4/1 29/5/1 28/6/1 27/7/1 26/8/1 25/9/1 24/10/1 23/11/1 22/12/1 21/13/1 20/14/1 19/15/1 18/16/1 17/17/1 16/18/1 15/19/1 14/20/1 13/21/1 12/22/1 11/23/1 10/24/1 9/25/1 8/26/1 7/27/1 6/28/1 5/29/1 4/30/1 3/31/1 2/32/1
f 34/33/2 33/34/2 35/35/2 36/36/2 37/37/2 38/38/2 39/39/2 40/40/2 41/41/2 42/42/2 43/43/2 44/44/2 45/45/2 46/46/2 47/47/2 48/48/2 49/49/2 50/50/2 51/51/2 52/52/2 53/53/2 54/54/2 55/55/2 56/56/2 57/57/2 58/58/2 59/59/2 60/60/2 61/61/2 62/62/2 63/63/2 64/64/2
f 4/65/3 5/66/3 37/37/3 36/36/3
f 31/67/4 32/68/4 64/64/4 63/63/4
f 18/69/5 19/70/5 51/51/5 50/50/5
f 5/66/6 6/71/6 38/38/6 37/37/6
f 32/68/7 1/72/7 34/33/7 64/64/7
f 19/70/8 20/73/8 52/52/8 51/51/8
f 6/71/9 7/74/9 39/39/9 38/38/9
f 20/73/10 21/75/10 53/53/10 52/52/10
f 7/74/11 8/76/11 40/40/11 39/39/11
f 21/75/12 22/77/12 54/54/12 53/53/12
f 8/76/13 9/78/13 41/41/13 40/40/13
f 22/77/14 23/79/14 55/55/14 54/54/14
f 9/78/15 10/80/15 42/42/15 41/41/15
f 23/79/16 24/81/16 56/56/16 55/55/16
f 10/80/17 11/82/17 43/43/17 42/42/17
f 24/81/18 25/83/18 57/57/18 56/56/18
f 11/82/19 12/84/19 44/44/19 43/43/19
f 25/83/20 26/85/20 58/58/20 57/57/20
f 12/84/21 13/86/21 45/45/21 44/44/21
f 26/85/22 27/87/22 59/59/22 58/58/22
f 13/86/23 14/88/23 46/46/23 45/45/23
f 27/87/24 28/89/24 60/60/24 59/59/24
f 14/88/25 15/90/25 47/47/25 46/46/25
f 1/72/26 2/91/26 33/34/26 34/33/26
f 28/89/27 29/92/27 61/61/27 60/60/27
f 15/90/28 16/93/28 48/48/28 47/47/28
f 2/91/29 3/94/29 35/35/29 33/34/29
f 29/92/30 30/95/30 62/62/30 61/61/30
f 16/93/31 17/96/31 49/49/31 48/48/31
f 3/94/32 4/65/32 36/36/32 35/35/32
f 30/95/33 31/67/33 63/63/33 62/62/33
f 17/96/34 18/69/34 50/50/34 49/49/34
